<?xml version="1.0" encoding="utf-8"?>
<!-- Generator: Adobe Illustrator 23.0.2, SVG Export Plug-In . SVG Version: 6.00 Build 0)  -->
<svg version="1.1" id="Layer_1" xmlns="http://www.w3.org/2000/svg" xmlns:xlink="http://www.w3.org/1999/xlink" x="0px" y="0px"
	 viewBox="0 0 384 256" style="enable-background:new 0 0 384 256;" xml:space="preserve">
<style type="text/css">
	.st0{fill:#89C1D2;}
	.st1{enable-background:new    ;}
	.st2{fill:#F3F6F4;}
	.st3{fill:#1D293F;}
</style>
<g>
	<rect x="0.5" y="0.5" class="st0" width="383" height="255"/>
	<path class="st0" d="M383,1v254H1V1H383 M384,0H0v256h384V0L384,0z"/>
</g>
<g class="st1">
	<path class="st2" d="M39.24,53.24l-1.31-5.77h-5.95l-1.31,5.77h-4.25l5.66-22.94h5.77l5.67,22.94H39.24z M37.13,43.71l-1.22-5.31
		c-0.07-0.32-0.24-1.13-0.49-2.43c-0.26-1.3-0.41-2.16-0.46-2.6c-0.14,0.9-0.31,1.88-0.52,2.96c-0.21,1.08-0.75,3.54-1.63,7.38
		H37.13z"/>
	<path class="st2" d="M49.43,53.24h-4.16V28.93h4.16V53.24z"/>
	<path class="st2" d="M52.77,31.29c0-0.69,0.2-1.23,0.6-1.63c0.4-0.4,0.96-0.6,1.68-0.6c0.68,0,1.22,0.2,1.63,0.6
		c0.41,0.4,0.61,0.95,0.61,1.63c0,0.71-0.21,1.26-0.63,1.65c-0.42,0.39-0.95,0.59-1.61,0.59c-0.69,0-1.24-0.2-1.66-0.59
		C52.98,32.55,52.77,32,52.77,31.29z M57.1,53.24h-4.16V35.83h4.16V53.24z"/>
	<path class="st2" d="M73.19,35.87v2.44l-2.08,0.47c0.41,0.73,0.61,1.65,0.61,2.75c0,1.84-0.5,3.29-1.5,4.33
		c-1,1.04-2.4,1.56-4.19,1.56c-0.52,0-0.91-0.04-1.16-0.13c-0.2,0.18-0.39,0.38-0.56,0.59c-0.18,0.22-0.27,0.49-0.27,0.81
		c0,0.73,0.63,1.09,1.89,1.09h2.52c1.48,0,2.62,0.4,3.41,1.2s1.2,2,1.2,3.6c0,2.02-0.68,3.58-2.03,4.69
		c-1.35,1.1-3.3,1.66-5.84,1.66c-1.93,0-3.41-0.42-4.45-1.26c-1.04-0.84-1.56-2.03-1.56-3.59c0-0.97,0.3-1.82,0.89-2.55
		s1.42-1.27,2.47-1.6c-0.53-0.21-0.97-0.53-1.3-0.97c-0.34-0.44-0.51-0.95-0.51-1.53c0-0.35,0.05-0.67,0.16-0.96
		c0.1-0.29,0.25-0.56,0.45-0.81c0.19-0.25,0.59-0.63,1.18-1.13c-0.72-0.44-1.29-1.11-1.7-2.02c-0.42-0.91-0.63-1.91-0.63-3.02
		c0-1.91,0.5-3.38,1.5-4.42c1-1.04,2.43-1.56,4.3-1.56c0.35,0,0.76,0.04,1.22,0.12c0.46,0.08,0.81,0.16,1.05,0.24H73.19z
		 M62.96,55.77c0,0.69,0.22,1.22,0.65,1.59c0.43,0.37,1.05,0.55,1.85,0.55c1.26,0,2.21-0.24,2.84-0.72
		c0.63-0.48,0.95-1.14,0.95-1.97c0-0.66-0.17-1.12-0.51-1.39c-0.34-0.27-0.97-0.41-1.9-0.41h-2.02c-0.56,0-1.01,0.21-1.35,0.63
		C63.13,54.48,62.96,55.05,62.96,55.77z M64.24,41.52c0,2.05,0.58,3.08,1.73,3.08c1.13,0,1.69-1.04,1.69-3.11
		c0-2.13-0.56-3.19-1.69-3.19C64.82,38.3,64.24,39.38,64.24,41.52z"/>
	<path class="st2" d="M83.96,53.24V42.87c0-1.26-0.15-2.21-0.45-2.86c-0.3-0.65-0.79-0.97-1.47-0.97c-0.9,0-1.55,0.45-1.97,1.34
		c-0.42,0.89-0.63,2.39-0.63,4.51v8.36h-4.16V35.83h3.3l0.5,2.23h0.27c0.38-0.8,0.91-1.43,1.61-1.88c0.7-0.45,1.52-0.68,2.45-0.68
		c1.58,0,2.77,0.54,3.55,1.63c0.79,1.08,1.18,2.67,1.18,4.75v11.36H83.96z"/>
	<path class="st2" d="M108.79,53.24V42.87c0-2.55-0.63-3.83-1.89-3.83c-0.92,0-1.57,0.46-1.97,1.37c-0.4,0.91-0.59,2.37-0.59,4.38
		v8.45h-4.19V42.87c0-2.55-0.64-3.83-1.92-3.83c-0.9,0-1.55,0.45-1.95,1.36s-0.61,2.4-0.61,4.48v8.36h-4.16V35.83h3.3l0.5,2.23h0.27
		c0.42-0.88,0.99-1.53,1.71-1.95c0.72-0.41,1.5-0.62,2.32-0.62c2.13,0,3.54,1.01,4.25,3.02h0.16c0.89-2.01,2.31-3.02,4.27-3.02
		c1.54,0,2.71,0.54,3.51,1.63c0.8,1.08,1.2,2.67,1.2,4.75v11.36H108.79z"/>
	<path class="st2" d="M122.76,53.55c-2.18,0-3.89-0.77-5.15-2.32c-1.26-1.55-1.88-3.74-1.88-6.57c0-2.88,0.57-5.12,1.7-6.73
		c1.14-1.61,2.72-2.42,4.75-2.42c1.9,0,3.39,0.69,4.48,2.07c1.09,1.38,1.64,3.32,1.64,5.8v2.22h-8.36c0.03,1.55,0.35,2.71,0.95,3.46
		c0.6,0.76,1.44,1.13,2.5,1.13c1.35,0,2.74-0.42,4.16-1.27v3.42C126.22,53.15,124.62,53.55,122.76,53.55z M122.15,38.71
		c-0.59,0-1.08,0.32-1.47,0.95c-0.39,0.63-0.61,1.61-0.67,2.93h4.22c-0.02-1.27-0.21-2.23-0.58-2.89
		C123.28,39.04,122.78,38.71,122.15,38.71z"/>
	<path class="st2" d="M139.73,53.24V42.87c0-1.26-0.15-2.21-0.45-2.86c-0.3-0.65-0.79-0.97-1.47-0.97c-0.9,0-1.55,0.45-1.97,1.34
		c-0.42,0.89-0.63,2.39-0.63,4.51v8.36h-4.16V35.83h3.3l0.5,2.23h0.27c0.38-0.8,0.91-1.43,1.61-1.88c0.7-0.45,1.52-0.68,2.45-0.68
		c1.58,0,2.77,0.54,3.55,1.63c0.79,1.08,1.18,2.67,1.18,4.75v11.36H139.73z"/>
	<path class="st2" d="M153.32,50.04c0.58,0,1.21-0.15,1.89-0.44v3.25c-0.68,0.47-1.69,0.7-3.05,0.7c-1.51,0-2.63-0.45-3.36-1.35
		c-0.73-0.9-1.09-2.25-1.09-4.05v-9.02h-1.69v-1.86l2.17-1.5l1.06-3.69h2.66v3.75h3.16v3.3h-3.16v9.16
		C151.91,49.46,152.38,50.04,153.32,50.04z"/>
</g>
<g>
	<polygon class="st3" points="119.07,129.69 107.95,184.37 55.04,202.07 13.25,165.11 24.37,110.44 77.28,92.73 	"/>
</g>
<g>
	<polygon class="st3" points="244.24,131.57 202.84,168.96 149.75,151.79 138.07,97.24 179.48,59.85 232.57,77.01 	"/>
</g>
<g>
	<polygon class="st3" points="287.45,137.65 340.22,155.75 350.93,210.5 308.87,247.15 256.1,229.05 245.38,174.3 	"/>
</g>
<g>
	<polygon class="st3" points="369.07,41.69 357.95,96.37 305.04,114.07 263.25,77.11 274.37,22.44 327.28,4.73 	"/>
</g>
<g class="st1">
	<path class="st2" d="M62.45,153.04l-2.41,1.12l-3.53-4.96c-0.5-0.67-1.02-1.5-1.55-2.48l0.19,0.55l0.7,2.27l1.51,5.86l-2.41,1.12
		l-6.68-9.5l1.89-0.88l3.64,5.42c0.36,0.54,0.91,1.41,1.64,2.59c-0.47-1.32-0.78-2.28-0.92-2.87l-1.62-6.4l2-0.92l3.83,5.38
		c0.55,0.81,1.09,1.66,1.61,2.57c-0.48-1.47-0.79-2.46-0.92-2.94l-1.81-6.27l1.91-0.88L62.45,153.04z"/>
	<path class="st2" d="M69.18,149.92L67,145.21c-0.54-1.16-1.09-1.6-1.68-1.33c-0.43,0.2-0.63,0.57-0.6,1.11s0.25,1.23,0.65,2.09
		l1.76,3.79l-1.89,0.87l-5.11-11.03l1.89-0.87l1.13,2.45c0.15,0.32,0.38,0.89,0.7,1.73l0.1-0.05c0.02-0.95,0.42-1.61,1.21-1.97
		c0.72-0.33,1.38-0.34,1.98-0.02c0.59,0.32,1.11,0.95,1.55,1.9l2.39,5.15L69.18,149.92z"/>
	<path class="st2" d="M76.48,146.54l-0.88-0.9l-0.04,0.02c-0.07,0.59-0.21,1.04-0.42,1.36c-0.22,0.31-0.55,0.57-1,0.78
		c-0.58,0.27-1.14,0.26-1.67-0.02c-0.53-0.28-0.98-0.81-1.34-1.58c-0.38-0.83-0.44-1.56-0.17-2.17c0.27-0.62,0.85-1.15,1.74-1.62
		l1.03-0.53l-0.26-0.57c-0.34-0.74-0.83-0.96-1.47-0.66c-0.47,0.22-0.93,0.66-1.37,1.31l-1.26-1c0.55-0.86,1.29-1.5,2.21-1.93
		c0.84-0.39,1.58-0.44,2.24-0.17c0.66,0.28,1.19,0.86,1.6,1.74l2.46,5.3L76.48,146.54z M74.22,145.97c0.34-0.16,0.55-0.44,0.61-0.85
		c0.06-0.41-0.03-0.86-0.26-1.38l-0.31-0.67l-0.57,0.3c-0.42,0.22-0.68,0.49-0.78,0.81c-0.1,0.32-0.05,0.69,0.16,1.13
		C73.38,145.97,73.76,146.19,74.22,145.97z"/>
	<path class="st2" d="M81.45,142.48c0.26-0.12,0.52-0.32,0.77-0.6l0.68,1.47c-0.21,0.36-0.62,0.67-1.23,0.96
		c-0.69,0.32-1.29,0.35-1.81,0.09c-0.52-0.25-0.97-0.79-1.35-1.61l-1.89-4.09l-0.77,0.36l-0.39-0.84l0.67-1.14l-0.29-1.9l1.21-0.56
		l0.79,1.7l1.43-0.66l0.69,1.5l-1.43,0.66l1.92,4.16C80.69,142.51,81.03,142.67,81.45,142.48z"/>
	<path class="st2" d="M83.3,139.33l-0.23-0.5c-0.21-0.45-0.32-0.88-0.34-1.28c-0.02-0.4,0.07-0.88,0.26-1.44
		c0.17-0.54,0.26-0.95,0.25-1.21c0-0.26-0.08-0.56-0.24-0.9c-0.14-0.31-0.33-0.52-0.56-0.65s-0.5-0.12-0.81,0.02
		c-0.51,0.24-0.96,0.67-1.36,1.29l-1.32-1.11c0.51-0.85,1.21-1.48,2.12-1.9c0.78-0.36,1.5-0.43,2.15-0.21
		c0.65,0.22,1.16,0.72,1.51,1.49c0.25,0.54,0.38,1.03,0.4,1.48c0.02,0.45-0.1,1.05-0.34,1.81c-0.16,0.49-0.24,0.85-0.24,1.08
		c0,0.23,0.07,0.5,0.22,0.82l0.2,0.43L83.3,139.33z M84.06,141.86c-0.17-0.37-0.21-0.71-0.1-1c0.11-0.29,0.35-0.53,0.74-0.71
		c0.39-0.18,0.73-0.21,1.02-0.1c0.29,0.12,0.52,0.35,0.69,0.72c0.17,0.36,0.2,0.69,0.09,0.99s-0.35,0.54-0.73,0.72
		s-0.72,0.21-1.01,0.1C84.46,142.46,84.23,142.22,84.06,141.86z"/>
</g>
<g class="st1">
	<path class="st2" d="M171.42,102.37l-2.56-0.71l0.52-6.07c0.05-0.83,0.19-1.8,0.42-2.89l-0.21,0.54l-0.94,2.18l-2.63,5.45
		l-2.56-0.71l1.05-11.56l2.01,0.56l-0.73,6.48c-0.08,0.65-0.22,1.66-0.43,3.04c0.5-1.31,0.88-2.24,1.15-2.79l2.91-5.93l2.12,0.59
		l-0.56,6.58c-0.1,0.97-0.25,1.97-0.43,3c0.59-1.44,0.99-2.38,1.2-2.84l2.68-5.95l2.03,0.56L171.42,102.37z"/>
	<path class="st2" d="M178.56,104.34l1.38-5c0.34-1.23,0.2-1.93-0.42-2.1c-0.46-0.13-0.85,0.02-1.17,0.46s-0.61,1.1-0.86,2.01
		l-1.12,4.03l-2-0.55l3.24-11.72l2,0.55l-0.72,2.61c-0.09,0.34-0.29,0.93-0.59,1.77l0.11,0.03c0.63-0.71,1.36-0.95,2.19-0.72
		c0.77,0.21,1.28,0.63,1.52,1.26c0.25,0.63,0.23,1.45-0.05,2.46l-1.51,5.47L178.56,104.34z"/>
	<path class="st2" d="M183.67,96.73l2.08,0.58l-0.15,5.06c0,0.45-0.07,1.07-0.21,1.85l0.04,0.01c0.04-0.12,0.12-0.33,0.25-0.63
		c0.13-0.3,0.22-0.53,0.3-0.7c0.07-0.17,0.89-1.78,2.46-4.85l2.11,0.58l-4.89,8.33c-0.6,1.02-1.2,1.71-1.82,2.06
		c-0.62,0.35-1.33,0.41-2.13,0.19c-0.4-0.11-0.74-0.25-1.03-0.42l0.46-1.68c0.19,0.12,0.41,0.21,0.67,0.28
		c0.67,0.19,1.24-0.13,1.69-0.96l0.29-0.49L183.67,96.73z"/>
	<path class="st2" d="M197,109.45l-0.08-1.25l-0.05-0.01c-0.43,0.41-0.83,0.66-1.2,0.76c-0.37,0.1-0.79,0.08-1.27-0.05
		c-0.62-0.17-1.04-0.54-1.27-1.1c-0.23-0.56-0.23-1.25,0-2.08c0.24-0.88,0.67-1.47,1.27-1.77s1.39-0.33,2.37-0.11l1.13,0.26
		l0.17-0.6c0.22-0.78-0.01-1.27-0.69-1.46c-0.5-0.14-1.13-0.1-1.89,0.11l-0.31-1.58c0.98-0.3,1.96-0.31,2.94-0.04
		c0.89,0.25,1.49,0.69,1.82,1.33c0.32,0.64,0.36,1.42,0.1,2.36l-1.56,5.63L197,109.45z M195.65,107.55c0.37,0.1,0.7,0.02,1.01-0.25
		c0.31-0.27,0.54-0.68,0.69-1.22l0.2-0.71l-0.63-0.14c-0.46-0.1-0.83-0.06-1.11,0.11c-0.28,0.18-0.48,0.5-0.61,0.97
		C195.01,107,195.16,107.41,195.65,107.55z"/>
	<path class="st2" d="M208.41,112.6l1.38-5c0.34-1.23,0.21-1.93-0.4-2.1c-0.44-0.12-0.82,0.01-1.13,0.4s-0.6,1.06-0.87,2.03
		l-1.13,4.07l-2.02-0.56l1.38-5c0.34-1.23,0.2-1.93-0.42-2.1c-0.43-0.12-0.81,0.01-1.12,0.39c-0.32,0.38-0.61,1.08-0.89,2.08
		l-1.12,4.03l-2-0.55l2.32-8.39l1.59,0.44l-0.06,1.14l0.13,0.04c0.32-0.37,0.68-0.61,1.08-0.71c0.4-0.1,0.8-0.1,1.2,0.01
		c1.02,0.28,1.57,0.96,1.65,2.02l0.08,0.02c0.7-0.85,1.51-1.15,2.46-0.88c0.74,0.21,1.23,0.62,1.47,1.25
		c0.24,0.63,0.22,1.44-0.06,2.45l-1.51,5.47L208.41,112.6z"/>
	<path class="st2" d="M216.35,114.8l3.05-11.01l1.93,0.53l-3.05,11.01L216.35,114.8z"/>
</g>
<g class="st1">
	<path class="st2" d="M162.23,117.11c-0.23,0.82-0.64,1.39-1.25,1.72c-0.61,0.33-1.38,0.36-2.31,0.1c-0.83-0.23-1.47-0.58-1.92-1.06
		l0.48-1.74c0.22,0.27,0.5,0.51,0.84,0.74c0.33,0.23,0.64,0.38,0.92,0.46c0.31,0.09,0.57,0.08,0.78-0.03
		c0.21-0.11,0.34-0.29,0.41-0.54c0.07-0.26,0.05-0.5-0.07-0.74c-0.12-0.24-0.37-0.56-0.75-0.96c-0.51-0.53-0.84-1.04-0.99-1.52
		s-0.15-1,0.01-1.56c0.2-0.71,0.6-1.21,1.2-1.49c0.6-0.28,1.33-0.3,2.19-0.07c0.74,0.21,1.39,0.59,1.94,1.17l-1.05,1.26
		c-0.46-0.44-0.89-0.72-1.29-0.83c-0.26-0.07-0.47-0.06-0.63,0.04c-0.17,0.1-0.28,0.25-0.33,0.44c-0.06,0.23-0.04,0.45,0.07,0.67
		c0.11,0.22,0.34,0.52,0.7,0.9c0.43,0.46,0.73,0.83,0.88,1.11c0.15,0.28,0.24,0.58,0.28,0.89
		C162.37,116.38,162.34,116.73,162.23,117.11z"/>
	<path class="st2" d="M170.19,117.42c-0.38,1.38-0.97,2.37-1.76,2.97c-0.79,0.6-1.7,0.77-2.71,0.49c-0.64-0.18-1.16-0.51-1.56-1
		c-0.4-0.49-0.63-1.1-0.72-1.83c-0.08-0.73,0-1.54,0.24-2.43c0.38-1.36,0.96-2.34,1.75-2.95s1.7-0.77,2.72-0.48
		c0.99,0.27,1.67,0.88,2.04,1.82S170.56,116.09,170.19,117.42z M165.74,116.19c-0.24,0.87-0.33,1.56-0.26,2.06
		c0.07,0.5,0.31,0.81,0.73,0.92c0.8,0.22,1.45-0.55,1.94-2.32c0.24-0.88,0.33-1.56,0.25-2.05s-0.32-0.79-0.73-0.9
		c-0.42-0.12-0.79,0.02-1.1,0.4C166.26,114.68,165.98,115.31,165.74,116.19z"/>
	<path class="st2" d="M179.43,121.86c-0.23,0.82-0.64,1.39-1.25,1.72s-1.38,0.36-2.31,0.1c-0.83-0.23-1.47-0.58-1.92-1.06l0.48-1.74
		c0.22,0.27,0.5,0.51,0.84,0.74s0.64,0.38,0.92,0.46c0.31,0.09,0.57,0.08,0.77-0.03s0.34-0.29,0.41-0.54
		c0.07-0.26,0.05-0.5-0.07-0.74c-0.12-0.24-0.37-0.56-0.75-0.96c-0.51-0.53-0.84-1.04-0.99-1.52s-0.15-1,0-1.56
		c0.2-0.71,0.6-1.21,1.2-1.49c0.6-0.28,1.33-0.3,2.19-0.07c0.74,0.21,1.39,0.59,1.94,1.17l-1.05,1.26c-0.46-0.44-0.89-0.71-1.3-0.83
		c-0.26-0.07-0.47-0.06-0.63,0.04c-0.17,0.1-0.28,0.25-0.33,0.44c-0.06,0.23-0.04,0.45,0.07,0.67s0.34,0.52,0.7,0.9
		c0.43,0.46,0.73,0.83,0.88,1.11s0.24,0.58,0.28,0.89C179.57,121.14,179.53,121.49,179.43,121.86z"/>
	<path class="st2" d="M183.36,123.93c0.28,0.08,0.6,0.09,0.97,0.04l-0.43,1.57c-0.39,0.13-0.91,0.11-1.56-0.07
		c-0.73-0.2-1.21-0.57-1.44-1.1c-0.23-0.53-0.23-1.23,0.01-2.1l1.2-4.34l-0.81-0.23l0.25-0.9l1.25-0.43l1-1.63l1.28,0.35l-0.5,1.81
		l1.52,0.42l-0.44,1.59l-1.52-0.42l-1.22,4.41C182.76,123.46,182.91,123.81,183.36,123.93z"/>
	<path class="st2" d="M190.96,118.5c0.25,0.07,0.48,0.17,0.69,0.31l-0.77,1.88c-0.13-0.09-0.3-0.17-0.53-0.23
		c-0.49-0.13-0.91-0.05-1.28,0.27c-0.37,0.31-0.65,0.83-0.85,1.57l-1.19,4.31l-2-0.55l2.32-8.39l1.65,0.46l-0.14,1.37l0.07,0.02
		c0.37-0.47,0.71-0.78,1.04-0.93C190.28,118.43,190.61,118.4,190.96,118.5z"/>
	<path class="st2" d="M194.32,128.63l-0.08-1.25l-0.05-0.01c-0.43,0.41-0.83,0.66-1.2,0.76c-0.37,0.1-0.79,0.08-1.27-0.05
		c-0.62-0.17-1.04-0.54-1.27-1.1c-0.23-0.56-0.23-1.25,0-2.08c0.24-0.88,0.67-1.47,1.27-1.77c0.6-0.29,1.39-0.33,2.37-0.11
		l1.13,0.26l0.17-0.6c0.22-0.78-0.01-1.27-0.69-1.46c-0.5-0.14-1.13-0.1-1.89,0.11l-0.31-1.58c0.98-0.3,1.96-0.31,2.94-0.04
		c0.89,0.25,1.49,0.69,1.82,1.33c0.32,0.64,0.36,1.42,0.1,2.36l-1.56,5.63L194.32,128.63z M192.97,126.73
		c0.37,0.1,0.7,0.02,1.01-0.25c0.31-0.27,0.54-0.68,0.69-1.22l0.2-0.71l-0.63-0.14c-0.46-0.1-0.84-0.06-1.11,0.11
		c-0.28,0.18-0.48,0.5-0.61,0.97C192.33,126.18,192.48,126.59,192.97,126.73z"/>
	<path class="st2" d="M201.59,130.64l1.38-5c0.17-0.61,0.22-1.09,0.16-1.44c-0.06-0.35-0.25-0.57-0.58-0.66
		c-0.43-0.12-0.81,0.01-1.13,0.38c-0.32,0.37-0.62,1.07-0.9,2.09l-1.11,4.03l-2-0.55l2.32-8.39l1.59,0.44l-0.06,1.14l0.13,0.04
		c0.29-0.34,0.63-0.57,1.03-0.69c0.4-0.13,0.82-0.13,1.27,0c0.76,0.21,1.26,0.63,1.5,1.26c0.23,0.63,0.21,1.44-0.07,2.45l-1.51,5.47
		L201.59,130.64z"/>
	<path class="st2" d="M213.58,124.94l-0.33,1.17l-1.06-0.05c0.1,0.4,0.07,0.87-0.07,1.41c-0.25,0.89-0.68,1.52-1.3,1.88
		c-0.62,0.37-1.36,0.43-2.23,0.2c-0.25-0.07-0.43-0.14-0.54-0.21c-0.12,0.06-0.24,0.13-0.35,0.21c-0.12,0.08-0.19,0.2-0.24,0.36
		c-0.1,0.35,0.16,0.61,0.76,0.78l1.21,0.33c0.71,0.2,1.21,0.54,1.49,1.03c0.28,0.49,0.31,1.12,0.1,1.9c-0.27,0.97-0.8,1.64-1.6,1.99
		c-0.8,0.35-1.81,0.36-3.04,0.02c-0.93-0.26-1.59-0.66-1.98-1.2c-0.39-0.54-0.48-1.19-0.27-1.94c0.13-0.47,0.39-0.84,0.77-1.11
		c0.38-0.28,0.85-0.42,1.4-0.44c-0.23-0.17-0.39-0.38-0.5-0.64c-0.1-0.26-0.12-0.52-0.04-0.81c0.05-0.17,0.12-0.32,0.2-0.44
		c0.09-0.12,0.2-0.23,0.32-0.33s0.37-0.23,0.72-0.39c-0.29-0.31-0.47-0.71-0.55-1.2c-0.08-0.49-0.05-1,0.1-1.54
		c0.25-0.92,0.69-1.56,1.31-1.93c0.62-0.37,1.38-0.43,2.28-0.18c0.17,0.05,0.36,0.12,0.57,0.22c0.21,0.1,0.37,0.18,0.47,0.26
		L213.58,124.94z M205.99,133.17c-0.09,0.33-0.06,0.61,0.1,0.85c0.16,0.24,0.43,0.41,0.82,0.51c0.61,0.17,1.09,0.18,1.46,0.03
		c0.37-0.15,0.61-0.42,0.72-0.82c0.09-0.32,0.07-0.56-0.06-0.74c-0.13-0.18-0.41-0.33-0.86-0.45l-0.97-0.27
		c-0.27-0.08-0.52-0.03-0.74,0.13C206.25,132.57,206.09,132.82,205.99,133.17z M208.51,126.48c-0.27,0.99-0.13,1.56,0.42,1.71
		c0.54,0.15,0.95-0.27,1.23-1.27c0.28-1.02,0.15-1.61-0.39-1.76C209.22,125,208.8,125.44,208.51,126.48z"/>
	<path class="st2" d="M215.33,134.6c-1.05-0.29-1.77-0.89-2.17-1.8c-0.4-0.91-0.41-2.05-0.03-3.42c0.38-1.38,0.96-2.39,1.72-3.02
		s1.63-0.8,2.61-0.53c0.91,0.25,1.54,0.78,1.88,1.6c0.34,0.81,0.35,1.81,0.02,3.02l-0.3,1.07l-4.03-1.11
		c-0.19,0.75-0.19,1.35,0,1.79c0.19,0.45,0.54,0.74,1.05,0.88c0.65,0.18,1.38,0.16,2.17-0.06l-0.46,1.65
		C217.05,134.87,216.22,134.85,215.33,134.6z M217.01,127.37c-0.29-0.08-0.56,0.01-0.83,0.26c-0.27,0.25-0.51,0.69-0.71,1.32
		l2.03,0.56c0.16-0.62,0.19-1.11,0.11-1.47C217.51,127.68,217.32,127.45,217.01,127.37z"/>
	<path class="st2" d="M220.1,134.65c0.11-0.4,0.3-0.67,0.57-0.83c0.27-0.15,0.61-0.17,1.02-0.06c0.41,0.11,0.69,0.31,0.84,0.59
		s0.17,0.61,0.07,1c-0.11,0.38-0.3,0.65-0.57,0.81c-0.28,0.16-0.62,0.19-1.02,0.08c-0.4-0.11-0.68-0.3-0.84-0.58
		S219.99,135.04,220.1,134.65z M221.15,132.23l0.15-0.53c0.13-0.48,0.32-0.88,0.57-1.2s0.62-0.63,1.13-0.93
		c0.48-0.3,0.81-0.56,0.98-0.76c0.17-0.2,0.3-0.48,0.4-0.84c0.09-0.33,0.09-0.61,0-0.86c-0.09-0.25-0.3-0.42-0.63-0.51
		c-0.54-0.15-1.17-0.12-1.87,0.11l-0.29-1.7c0.94-0.32,1.88-0.35,2.84-0.08c0.83,0.23,1.42,0.64,1.77,1.23
		c0.35,0.59,0.42,1.3,0.19,2.11c-0.16,0.57-0.38,1.04-0.65,1.39s-0.75,0.74-1.43,1.16c-0.44,0.27-0.73,0.5-0.88,0.67
		c-0.15,0.17-0.27,0.43-0.36,0.77l-0.13,0.46L221.15,132.23z"/>
</g>
<g class="st1">
	<path class="st2" d="M334.78,58.84l2.53-0.8l2.86,5.37c0.41,0.73,0.82,1.61,1.22,2.65l-0.11-0.57l-0.4-2.34l-0.75-6.01l2.53-0.8
		l5.41,10.27l-1.99,0.63l-2.92-5.84c-0.29-0.59-0.72-1.51-1.29-2.78c0.3,1.37,0.48,2.36,0.55,2.96l0.79,6.56l-2.1,0.66l-3.12-5.83
		c-0.44-0.87-0.87-1.79-1.27-2.75c0.29,1.53,0.47,2.54,0.54,3.03l0.99,6.45l-2,0.63L334.78,58.84z"/>
	<path class="st2" d="M328.96,60.51c1.04-0.33,1.97-0.22,2.8,0.33c0.83,0.55,1.46,1.5,1.89,2.85c0.43,1.37,0.5,2.53,0.2,3.47
		c-0.3,0.94-0.93,1.56-1.9,1.87c-0.9,0.29-1.72,0.18-2.45-0.31c-0.73-0.49-1.28-1.33-1.65-2.52l-0.33-1.06l3.99-1.26
		c-0.25-0.73-0.57-1.24-0.97-1.51c-0.4-0.27-0.86-0.32-1.36-0.16c-0.65,0.2-1.24,0.61-1.79,1.23l-0.51-1.63
		C327.37,61.22,328.07,60.79,328.96,60.51z M331.48,67.49c0.28-0.09,0.47-0.31,0.56-0.67c0.09-0.36,0.05-0.86-0.12-1.5l-2.01,0.63
		c0.2,0.6,0.44,1.03,0.71,1.29C330.89,67.51,331.18,67.59,331.48,67.49z"/>
	<path class="st2" d="M317.14,64.39l1.56,4.95c0.19,0.6,0.4,1.03,0.65,1.3c0.24,0.26,0.52,0.34,0.85,0.24
		c0.43-0.13,0.67-0.45,0.74-0.93c0.07-0.49-0.06-1.24-0.38-2.25l-1.26-3.99l1.98-0.63l2.62,8.3l-1.57,0.5l-0.57-0.99l-0.13,0.04
		c-0.06,0.44-0.22,0.82-0.49,1.14c-0.26,0.32-0.62,0.55-1.07,0.69c-0.75,0.24-1.4,0.16-1.94-0.24c-0.54-0.4-0.96-1.09-1.28-2.09
		l-1.71-5.42L317.14,64.39z"/>
	<path class="st2" d="M310.43,66.34c1.04-0.33,1.97-0.22,2.8,0.33c0.83,0.55,1.46,1.5,1.89,2.85c0.43,1.37,0.5,2.53,0.2,3.47
		c-0.3,0.94-0.93,1.56-1.9,1.87c-0.9,0.29-1.72,0.18-2.45-0.31c-0.73-0.49-1.28-1.33-1.65-2.52l-0.33-1.06l3.99-1.26
		c-0.25-0.73-0.57-1.24-0.97-1.51c-0.4-0.27-0.86-0.32-1.36-0.16c-0.65,0.2-1.24,0.61-1.79,1.23l-0.51-1.63
		C308.84,67.06,309.54,66.63,310.43,66.34z M312.96,73.33c0.28-0.09,0.47-0.31,0.56-0.67c0.09-0.36,0.05-0.86-0.12-1.5l-2.01,0.63
		c0.2,0.6,0.44,1.03,0.71,1.29C312.37,73.35,312.65,73.43,312.96,73.33z"/>
	<path class="st2" d="M303.41,68.56c1.04-0.33,1.97-0.22,2.8,0.33c0.83,0.55,1.46,1.5,1.89,2.85c0.43,1.37,0.5,2.53,0.2,3.47
		c-0.3,0.94-0.93,1.56-1.9,1.87c-0.9,0.28-1.72,0.18-2.45-0.31c-0.73-0.49-1.28-1.33-1.66-2.52l-0.33-1.06l3.99-1.26
		c-0.25-0.73-0.57-1.24-0.97-1.51s-0.86-0.32-1.36-0.16c-0.65,0.2-1.24,0.61-1.79,1.23l-0.51-1.63
		C301.82,69.27,302.53,68.84,303.41,68.56z M305.94,75.54c0.28-0.09,0.47-0.31,0.56-0.67c0.09-0.36,0.05-0.86-0.12-1.5l-2.01,0.63
		c0.2,0.6,0.44,1.03,0.71,1.29C305.35,75.56,305.63,75.64,305.94,75.54z"/>
	<path class="st2" d="M297.27,70.49c0.76-0.24,1.49-0.05,2.17,0.56c0.68,0.62,1.23,1.6,1.66,2.94c0.43,1.35,0.54,2.48,0.35,3.38
		c-0.19,0.9-0.67,1.47-1.43,1.71c-0.38,0.12-0.73,0.13-1.07,0.03c-0.33-0.1-0.69-0.33-1.06-0.7l-0.12,0.04
		c0.3,0.74,0.49,1.26,0.59,1.56l0.87,2.77l-1.98,0.62l-3.65-11.6l1.47-0.46l0.68,0.98l0.07-0.02
		C295.99,71.35,296.47,70.75,297.27,70.49z M297.16,72.37c-0.37,0.12-0.58,0.37-0.65,0.76c-0.06,0.39,0.04,1.03,0.3,1.92l0.08,0.26
		c0.3,0.96,0.6,1.61,0.9,1.95c0.29,0.34,0.64,0.44,1.03,0.32c0.37-0.12,0.56-0.42,0.59-0.93c0.02-0.5-0.1-1.18-0.37-2.04
		c-0.27-0.86-0.56-1.48-0.86-1.85C297.88,72.38,297.54,72.25,297.16,72.37z"/>
</g>
<g class="st1">
	<path class="st2" d="M333.32,43.74c-0.43-1.36-0.47-2.51-0.14-3.45c0.34-0.94,1.01-1.57,2.01-1.88c0.64-0.2,1.25-0.2,1.85-0.01
		c0.6,0.19,1.13,0.58,1.6,1.15c0.47,0.57,0.84,1.29,1.12,2.17c0.42,1.35,0.47,2.49,0.14,3.43c-0.33,0.94-1.01,1.57-2.02,1.89
		c-0.98,0.31-1.88,0.17-2.7-0.42C334.35,46.01,333.73,45.06,333.32,43.74z M337.73,42.35c-0.27-0.86-0.57-1.49-0.9-1.87
		c-0.33-0.38-0.7-0.51-1.12-0.38c-0.79,0.25-0.92,1.25-0.37,3c0.27,0.87,0.57,1.49,0.9,1.86c0.33,0.37,0.7,0.49,1.11,0.36
		c0.42-0.13,0.65-0.44,0.71-0.93C338.12,43.9,338,43.22,337.73,42.35z"/>
	<path class="st2" d="M329.74,49.59c-0.24,0.08-0.49,0.12-0.75,0.11l-0.38-1.99c0.15,0,0.34-0.03,0.57-0.1
		c0.48-0.15,0.79-0.46,0.93-0.92s0.09-1.05-0.14-1.78l-1.34-4.27l1.98-0.62l2.62,8.3l-1.63,0.51l-0.63-1.23l-0.07,0.02
		c-0.05,0.59-0.17,1.04-0.36,1.34C330.35,49.28,330.08,49.48,329.74,49.59z"/>
	<path class="st2" d="M323.24,42.18c0.76-0.24,1.49-0.05,2.17,0.56c0.68,0.62,1.23,1.6,1.66,2.94c0.43,1.35,0.54,2.48,0.35,3.38
		c-0.19,0.9-0.67,1.47-1.43,1.71c-0.38,0.12-0.73,0.13-1.07,0.03c-0.33-0.1-0.69-0.33-1.06-0.7l-0.12,0.04
		c0.3,0.74,0.49,1.26,0.59,1.56l0.87,2.77l-1.98,0.63l-3.65-11.59l1.48-0.46l0.68,0.97l0.07-0.02
		C321.95,43.03,322.44,42.43,323.24,42.18z M323.13,44.06c-0.37,0.12-0.58,0.37-0.65,0.76c-0.06,0.39,0.04,1.03,0.3,1.92l0.08,0.26
		c0.3,0.96,0.6,1.62,0.9,1.95c0.29,0.34,0.64,0.45,1.03,0.32c0.37-0.12,0.56-0.43,0.59-0.93c0.02-0.5-0.1-1.18-0.37-2.04
		c-0.27-0.86-0.56-1.48-0.86-1.85C323.85,44.06,323.5,43.94,323.13,44.06z"/>
	<path class="st2" d="M314.79,44.84c1.04-0.33,1.97-0.22,2.8,0.33c0.83,0.55,1.46,1.5,1.89,2.85c0.43,1.37,0.5,2.53,0.2,3.47
		c-0.3,0.94-0.93,1.56-1.9,1.87c-0.9,0.29-1.72,0.18-2.45-0.31c-0.73-0.49-1.28-1.34-1.65-2.52l-0.33-1.06l3.99-1.26
		c-0.25-0.74-0.57-1.24-0.97-1.51c-0.4-0.27-0.86-0.33-1.36-0.17c-0.65,0.2-1.24,0.61-1.79,1.23l-0.51-1.63
		C313.2,45.55,313.9,45.12,314.79,44.84z M317.31,51.83c0.28-0.09,0.47-0.31,0.56-0.67c0.09-0.36,0.05-0.86-0.12-1.5l-2.01,0.63
		c0.2,0.6,0.44,1.03,0.71,1.29C316.72,51.84,317.01,51.92,317.31,51.83z"/>
	<path class="st2" d="M310.01,55.81c-0.24,0.08-0.49,0.11-0.75,0.11l-0.38-1.99c0.15,0.01,0.34-0.03,0.57-0.1
		c0.48-0.15,0.79-0.46,0.93-0.92c0.14-0.46,0.09-1.05-0.14-1.78l-1.35-4.27l1.98-0.63l2.62,8.3l-1.63,0.51l-0.63-1.23l-0.07,0.02
		c-0.05,0.59-0.17,1.04-0.36,1.34C310.61,55.49,310.35,55.7,310.01,55.81z"/>
	<path class="st2" d="M305.62,49.02c0.12,0.39,0.11,0.73-0.03,1.01c-0.14,0.28-0.42,0.48-0.82,0.61c-0.41,0.13-0.75,0.12-1.03-0.03
		c-0.28-0.15-0.48-0.42-0.6-0.8c-0.12-0.38-0.11-0.71,0.04-1c0.14-0.29,0.42-0.49,0.81-0.62s0.74-0.12,1.02,0.03
		C305.3,48.36,305.5,48.63,305.62,49.02z M306.05,51.61l0.16,0.52c0.15,0.48,0.21,0.92,0.17,1.32c-0.04,0.4-0.18,0.87-0.44,1.4
		c-0.24,0.52-0.38,0.91-0.41,1.17c-0.03,0.26,0.01,0.57,0.12,0.92c0.1,0.32,0.26,0.56,0.47,0.72c0.21,0.16,0.48,0.18,0.8,0.08
		c0.54-0.17,1.04-0.54,1.51-1.11l1.17,1.27c-0.61,0.78-1.39,1.31-2.34,1.61c-0.82,0.26-1.54,0.23-2.16-0.07
		c-0.62-0.31-1.05-0.86-1.31-1.67c-0.18-0.57-0.25-1.07-0.21-1.52c0.04-0.45,0.23-1.03,0.57-1.75c0.22-0.47,0.34-0.81,0.37-1.04
		c0.03-0.22-0.01-0.51-0.12-0.84l-0.14-0.46L306.05,51.61z"/>
</g>
<g class="st1">
	<path class="st2" d="M272.89,175.68v7.39c0,1.36-0.31,2.4-0.92,3.11s-1.5,1.07-2.66,1.07c-1.14,0-2-0.36-2.59-1.07
		s-0.89-1.76-0.89-3.15v-7.36h2.11v7.52c0,1.45,0.48,2.18,1.45,2.18c0.45,0,0.79-0.18,1.04-0.55s0.37-0.9,0.37-1.58v-7.56H272.89z"
		/>
	<path class="st2" d="M279.07,187.1v-5.19c0-0.63-0.08-1.11-0.23-1.43s-0.4-0.48-0.73-0.48c-0.45,0-0.78,0.22-0.98,0.67
		s-0.31,1.2-0.31,2.25v4.18h-2.08v-8.7h1.65l0.25,1.12h0.13c0.19-0.4,0.46-0.71,0.8-0.94s0.76-0.34,1.23-0.34
		c0.79,0,1.38,0.27,1.78,0.81s0.59,1.33,0.59,2.38v5.68H279.07z"/>
	<path class="st2" d="M284.92,187.1h-2.08v-12.16h2.08V187.1z"/>
	<path class="st2" d="M289.88,187.26c-1.09,0-1.95-0.39-2.57-1.16s-0.94-1.87-0.94-3.29c0-1.44,0.28-2.56,0.85-3.37
		s1.36-1.21,2.38-1.21c0.95,0,1.7,0.34,2.24,1.04s0.82,1.66,0.82,2.9v1.11h-4.18c0.02,0.78,0.17,1.35,0.48,1.73s0.72,0.57,1.25,0.57
		c0.68,0,1.37-0.21,2.08-0.63v1.71C291.61,187.06,290.81,187.26,289.88,187.26z M289.57,179.84c-0.3,0-0.54,0.16-0.73,0.47
		s-0.3,0.8-0.34,1.46h2.11c-0.01-0.64-0.11-1.12-0.29-1.45S289.89,179.84,289.57,179.84z"/>
	<path class="st2" d="M298.7,184.56c0,0.85-0.25,1.51-0.75,1.99s-1.23,0.71-2.2,0.71c-0.86,0-1.57-0.17-2.13-0.51v-1.8
		c0.29,0.2,0.62,0.36,1,0.49s0.72,0.2,1.01,0.2c0.32,0,0.57-0.08,0.74-0.24s0.25-0.37,0.25-0.63c0-0.27-0.09-0.5-0.27-0.7
		s-0.5-0.44-0.98-0.73c-0.63-0.38-1.08-0.77-1.36-1.2s-0.41-0.93-0.41-1.5c0-0.74,0.25-1.33,0.76-1.76s1.2-0.65,2.09-0.65
		c0.77,0,1.5,0.2,2.18,0.61l-0.68,1.49c-0.56-0.3-1.05-0.45-1.47-0.45c-0.27,0-0.46,0.07-0.6,0.21s-0.2,0.31-0.2,0.52
		c0,0.23,0.08,0.44,0.25,0.63s0.47,0.41,0.92,0.68c0.54,0.33,0.92,0.61,1.14,0.84s0.39,0.49,0.51,0.78S298.7,184.17,298.7,184.56z"
		/>
	<path class="st2" d="M304.68,184.56c0,0.85-0.25,1.51-0.75,1.99s-1.23,0.71-2.2,0.71c-0.86,0-1.57-0.17-2.13-0.51v-1.8
		c0.29,0.2,0.62,0.36,1,0.49s0.72,0.2,1.01,0.2c0.32,0,0.57-0.08,0.74-0.24s0.25-0.37,0.25-0.63c0-0.27-0.09-0.5-0.27-0.7
		s-0.5-0.44-0.98-0.73c-0.63-0.38-1.08-0.77-1.36-1.2s-0.41-0.93-0.41-1.5c0-0.74,0.25-1.33,0.76-1.76s1.2-0.65,2.09-0.65
		c0.77,0,1.5,0.2,2.18,0.61l-0.68,1.49c-0.56-0.3-1.05-0.45-1.47-0.45c-0.27,0-0.46,0.07-0.6,0.21s-0.2,0.31-0.2,0.52
		c0,0.23,0.08,0.44,0.25,0.63s0.47,0.41,0.92,0.68c0.54,0.33,0.92,0.61,1.14,0.84s0.39,0.49,0.51,0.78S304.68,184.17,304.68,184.56z
		"/>
	<path class="st2" d="M309.07,178.4h2.16l1.2,4.91c0.12,0.44,0.22,1.05,0.29,1.84h0.05c0-0.13,0.03-0.35,0.07-0.67
		s0.08-0.57,0.1-0.75s0.39-1.96,1.08-5.33h2.19l-2.49,9.33c-0.3,1.15-0.7,1.97-1.2,2.47s-1.17,0.75-2,0.75
		c-0.41,0-0.78-0.04-1.1-0.13v-1.74c0.21,0.06,0.45,0.09,0.72,0.09c0.7,0,1.16-0.46,1.38-1.38l0.15-0.55L309.07,178.4z"/>
	<path class="st2" d="M323.53,182.74c0,1.43-0.3,2.54-0.91,3.33s-1.43,1.19-2.48,1.19c-0.67,0-1.25-0.18-1.77-0.55
		s-0.9-0.89-1.18-1.57s-0.41-1.49-0.41-2.4c0-1.41,0.3-2.51,0.9-3.31s1.43-1.19,2.49-1.19c1.03,0,1.84,0.41,2.45,1.21
		S323.53,181.36,323.53,182.74z M318.9,182.74c0,0.91,0.1,1.59,0.3,2.05s0.52,0.7,0.95,0.7c0.83,0,1.25-0.92,1.25-2.75
		c0-0.91-0.1-1.59-0.3-2.04s-0.52-0.68-0.95-0.68c-0.44,0-0.75,0.23-0.95,0.68S318.9,181.83,318.9,182.74z"/>
	<path class="st2" d="M329.69,187.1l-0.26-1.12h-0.11c-0.19,0.4-0.47,0.71-0.82,0.93s-0.76,0.34-1.22,0.34
		c-0.78,0-1.37-0.27-1.77-0.8s-0.6-1.33-0.6-2.38v-5.68h2.1v5.18c0,0.64,0.08,1.11,0.23,1.44s0.4,0.48,0.73,0.48
		c0.45,0,0.77-0.22,0.98-0.67s0.31-1.2,0.31-2.26v-4.17h2.1v8.7H329.69z"/>
</g>
<g class="st1">
	<path class="st2" d="M271.81,206.3l-0.87-5.05l-0.3-2.13h-0.03c-0.08,0.69-0.14,1.19-0.19,1.5s-0.38,2.2-0.99,5.68h-2.67l-1.73-8.7
		h2.09l0.8,4.8c0.09,0.53,0.18,1.31,0.26,2.34h0.05c0.01-0.28,0.05-0.7,0.11-1.26s0.11-0.93,0.13-1.09l0.86-4.78h2.67l0.85,4.8
		c0.1,0.51,0.18,1.29,0.26,2.34h0.03c0.07-0.93,0.16-1.71,0.27-2.34l0.83-4.8h2.03l-1.74,8.7H271.81z"/>
	<path class="st2" d="M281.57,206.3l-0.41-1.19h-0.05c-0.31,0.51-0.63,0.86-0.95,1.05s-0.74,0.29-1.24,0.29
		c-0.64,0-1.14-0.24-1.51-0.72s-0.55-1.15-0.55-2c0-0.92,0.25-1.6,0.75-2.04s1.25-0.69,2.25-0.74l1.16-0.05v-0.63
		c0-0.81-0.35-1.22-1.05-1.22c-0.52,0-1.12,0.2-1.8,0.61l-0.72-1.44c0.86-0.55,1.8-0.82,2.82-0.82c0.92,0,1.62,0.26,2.11,0.79
		s0.72,1.28,0.72,2.25v5.84H281.57z M279.76,204.83c0.38,0,0.68-0.17,0.91-0.51s0.34-0.8,0.34-1.36v-0.73l-0.64,0.03
		c-0.47,0.03-0.82,0.16-1.04,0.41s-0.33,0.61-0.33,1.09C279,204.48,279.25,204.83,279.76,204.83z"/>
	<path class="st2" d="M289.1,206.3v-5.19c0-0.63-0.08-1.11-0.23-1.43s-0.4-0.48-0.73-0.48c-0.45,0-0.78,0.22-0.98,0.67
		s-0.31,1.2-0.31,2.25v4.18h-2.08v-8.7h1.65l0.25,1.12h0.13c0.19-0.4,0.46-0.71,0.8-0.94s0.76-0.34,1.23-0.34
		c0.79,0,1.38,0.27,1.78,0.81s0.59,1.33,0.59,2.38v5.68H289.1z"/>
	<path class="st2" d="M295.9,204.7c0.29,0,0.61-0.07,0.95-0.22v1.63c-0.34,0.23-0.85,0.35-1.52,0.35c-0.75,0-1.32-0.23-1.68-0.68
		s-0.55-1.13-0.55-2.03v-4.51h-0.84v-0.93l1.09-0.75l0.53-1.84h1.33v1.88h1.58v1.65h-1.58v4.58
		C295.2,204.41,295.43,204.7,295.9,204.7z"/>
	<path class="st2" d="M305.04,204.7c0.29,0,0.61-0.07,0.95-0.22v1.63c-0.34,0.23-0.85,0.35-1.52,0.35c-0.75,0-1.32-0.23-1.68-0.68
		s-0.55-1.13-0.55-2.03v-4.51h-0.84v-0.93l1.09-0.75l0.53-1.84h1.33v1.88h1.58v1.65h-1.58v4.58
		C304.34,204.41,304.57,204.7,305.04,204.7z"/>
	<path class="st2" d="M311.54,206.3v-5.19c0-1.28-0.32-1.91-0.96-1.91c-0.48,0-0.82,0.25-1.01,0.75s-0.29,1.23-0.29,2.17v4.18h-2.08
		v-12.16h2.08v2.7c0,0.35-0.03,0.97-0.09,1.87h0.11c0.42-0.85,1.06-1.28,1.92-1.28c0.8,0,1.4,0.27,1.8,0.81s0.61,1.33,0.61,2.38
		v5.68H311.54z"/>
	<path class="st2" d="M315.25,195.33c0-0.34,0.1-0.62,0.3-0.82s0.48-0.3,0.84-0.3c0.34,0,0.61,0.1,0.81,0.3s0.3,0.47,0.3,0.82
		c0,0.35-0.1,0.63-0.31,0.82s-0.48,0.29-0.8,0.29c-0.34,0-0.62-0.1-0.83-0.29S315.25,195.68,315.25,195.33z M317.41,206.3h-2.08
		v-8.7h2.08V206.3z"/>
	<path class="st2" d="M323.86,203.76c0,0.85-0.25,1.51-0.75,1.99s-1.23,0.71-2.2,0.71c-0.86,0-1.57-0.17-2.13-0.51v-1.8
		c0.29,0.2,0.62,0.36,1,0.49s0.72,0.2,1.01,0.2c0.32,0,0.57-0.08,0.74-0.24s0.25-0.37,0.25-0.63c0-0.27-0.09-0.5-0.27-0.7
		s-0.5-0.44-0.98-0.73c-0.63-0.38-1.08-0.77-1.36-1.2s-0.41-0.93-0.41-1.5c0-0.74,0.25-1.33,0.76-1.76s1.2-0.65,2.09-0.65
		c0.77,0,1.5,0.2,2.18,0.61l-0.68,1.49c-0.56-0.3-1.05-0.45-1.47-0.45c-0.27,0-0.46,0.07-0.6,0.21s-0.2,0.31-0.2,0.52
		c0,0.23,0.08,0.44,0.25,0.63s0.47,0.41,0.92,0.68c0.54,0.33,0.92,0.61,1.14,0.84s0.39,0.49,0.51,0.78S323.86,203.37,323.86,203.76z
		"/>
</g>
</svg>
