<?xml version="1.0" encoding="utf-8"?>
<!-- Generator: Adobe Illustrator 23.0.2, SVG Export Plug-In . SVG Version: 6.00 Build 0)  -->
<svg version="1.1" id="Layer_1" xmlns="http://www.w3.org/2000/svg" xmlns:xlink="http://www.w3.org/1999/xlink" x="0px" y="0px"
	 viewBox="0 0 384 256" style="enable-background:new 0 0 384 256;" xml:space="preserve">
<style type="text/css">
	.st0{fill:#89C1D2;}
	.st1{enable-background:new    ;}
</style>
<g>
	<rect class="st0" width="384" height="256"/>
</g>
<g class="st1">
	<path d="M143.56,95.51c-0.61,0-1.09,0.36-1.44,1.07s-0.53,1.71-0.53,2.98c0,2.65,0.69,3.97,2.07,3.97c0.6,0,1.24-0.19,1.9-0.58
		v1.89c-0.56,0.37-1.27,0.55-2.14,0.55c-1.29,0-2.27-0.51-2.96-1.54c-0.69-1.02-1.04-2.46-1.04-4.32s0.36-3.3,1.07-4.34
		s1.7-1.55,2.96-1.55c0.42,0,0.82,0.06,1.2,0.17s0.79,0.32,1.23,0.6l-0.7,1.73c-0.23-0.16-0.48-0.31-0.75-0.44
		S143.87,95.51,143.56,95.51z"/>
	<path d="M153.49,100.87c0,1.43-0.3,2.54-0.91,3.33c-0.6,0.79-1.43,1.19-2.48,1.19c-0.67,0-1.26-0.18-1.77-0.55
		c-0.51-0.36-0.9-0.89-1.18-1.57c-0.28-0.68-0.41-1.49-0.41-2.4c0-1.41,0.3-2.51,0.9-3.31c0.6-0.79,1.43-1.19,2.49-1.19
		c1.03,0,1.84,0.41,2.45,1.21C153.19,98.4,153.49,99.49,153.49,100.87z M148.87,100.87c0,0.91,0.1,1.59,0.3,2.05
		c0.2,0.46,0.52,0.7,0.95,0.7c0.83,0,1.25-0.92,1.25-2.75c0-0.91-0.1-1.59-0.3-2.04c-0.2-0.45-0.52-0.68-0.95-0.68
		c-0.44,0-0.76,0.23-0.95,0.68C148.97,99.28,148.87,99.96,148.87,100.87z"/>
	<path d="M159.29,105.24v-5.19c0-0.63-0.08-1.11-0.23-1.43c-0.15-0.32-0.4-0.48-0.73-0.48c-0.45,0-0.78,0.22-0.98,0.67
		c-0.21,0.45-0.31,1.2-0.31,2.25v4.18h-2.08v-8.7h1.65l0.25,1.12h0.13c0.19-0.4,0.46-0.71,0.8-0.94c0.35-0.23,0.76-0.34,1.23-0.34
		c0.79,0,1.38,0.27,1.78,0.81c0.39,0.54,0.59,1.33,0.59,2.38v5.68H159.29z"/>
	<path d="M166.09,103.64c0.29,0,0.61-0.07,0.95-0.22v1.63c-0.34,0.23-0.85,0.35-1.52,0.35c-0.76,0-1.32-0.23-1.68-0.68
		c-0.36-0.45-0.55-1.13-0.55-2.03v-4.51h-0.84v-0.93l1.09-0.75l0.53-1.84h1.33v1.88h1.58v1.65h-1.58v4.58
		C165.38,103.35,165.62,103.64,166.09,103.64z"/>
	<path d="M171.96,96.37c0.25,0,0.5,0.04,0.75,0.12l-0.24,2.02c-0.15-0.05-0.34-0.08-0.57-0.08c-0.51,0-0.89,0.2-1.16,0.6
		c-0.27,0.4-0.41,0.98-0.41,1.74v4.48h-2.08v-8.7h1.71l0.23,1.36h0.07c0.23-0.55,0.48-0.94,0.75-1.17
		C171.29,96.49,171.6,96.37,171.96,96.37z"/>
	<path d="M177.91,105.24l-0.41-1.19h-0.05c-0.31,0.51-0.63,0.86-0.95,1.05s-0.74,0.29-1.24,0.29c-0.64,0-1.14-0.24-1.51-0.72
		s-0.55-1.15-0.55-2c0-0.92,0.25-1.6,0.75-2.04c0.5-0.45,1.25-0.69,2.25-0.74l1.16-0.05v-0.63c0-0.81-0.35-1.22-1.05-1.22
		c-0.52,0-1.12,0.2-1.8,0.61l-0.72-1.44c0.86-0.55,1.8-0.82,2.82-0.82c0.92,0,1.62,0.26,2.11,0.79c0.48,0.53,0.72,1.28,0.72,2.25
		v5.84H177.91z M176.1,103.77c0.38,0,0.68-0.17,0.91-0.51s0.34-0.8,0.34-1.36v-0.73l-0.64,0.03c-0.47,0.03-0.82,0.16-1.04,0.41
		c-0.22,0.25-0.33,0.61-0.33,1.09C175.34,103.41,175.59,103.77,176.1,103.77z"/>
	<path d="M185.78,102.69c0,0.85-0.25,1.51-0.75,1.99c-0.5,0.48-1.23,0.71-2.2,0.71c-0.86,0-1.57-0.17-2.13-0.51v-1.8
		c0.29,0.2,0.62,0.36,1,0.49s0.72,0.2,1.01,0.2c0.32,0,0.57-0.08,0.74-0.24c0.17-0.16,0.25-0.37,0.25-0.63c0-0.27-0.09-0.5-0.27-0.7
		c-0.18-0.2-0.5-0.44-0.98-0.73c-0.63-0.38-1.08-0.77-1.36-1.2s-0.41-0.93-0.41-1.5c0-0.74,0.25-1.33,0.76-1.76s1.2-0.65,2.09-0.65
		c0.77,0,1.5,0.2,2.18,0.61l-0.68,1.49c-0.56-0.3-1.05-0.45-1.47-0.45c-0.27,0-0.46,0.07-0.6,0.21s-0.2,0.31-0.2,0.52
		c0,0.23,0.08,0.44,0.25,0.63s0.47,0.41,0.92,0.68c0.54,0.33,0.92,0.61,1.14,0.84s0.39,0.49,0.51,0.78
		C185.72,101.96,185.78,102.3,185.78,102.69z"/>
	<path d="M190.12,103.64c0.29,0,0.61-0.07,0.95-0.22v1.63c-0.34,0.23-0.85,0.35-1.52,0.35c-0.76,0-1.32-0.23-1.68-0.68
		c-0.36-0.45-0.55-1.13-0.55-2.03v-4.51h-0.84v-0.93l1.09-0.75l0.53-1.84h1.33v1.88h1.58v1.65h-1.58v4.58
		C189.42,103.35,189.65,103.64,190.12,103.64z"/>
</g>
<g class="st1">
	<path d="M150.55,122.28h-2.66l-1.12-5.98c-0.17-0.82-0.29-1.78-0.37-2.9l-0.06,0.58l-0.32,2.35l-1.09,5.95h-2.66l-2.07-11.42h2.09
		l1.02,6.45c0.1,0.65,0.23,1.66,0.4,3.04c0.13-1.4,0.25-2.39,0.37-2.99l1.22-6.49h2.2l1.22,6.49c0.16,0.96,0.29,1.97,0.38,3.01
		c0.18-1.54,0.31-2.56,0.4-3.05l0.99-6.45h2.1L150.55,122.28z"/>
	<path d="M157.65,122.28l-0.41-1.19h-0.05c-0.31,0.51-0.63,0.86-0.95,1.05s-0.74,0.29-1.24,0.29c-0.64,0-1.14-0.24-1.51-0.72
		s-0.55-1.15-0.55-2c0-0.92,0.25-1.6,0.75-2.04c0.5-0.45,1.25-0.69,2.25-0.74l1.16-0.05v-0.63c0-0.81-0.35-1.22-1.05-1.22
		c-0.52,0-1.12,0.2-1.8,0.61l-0.72-1.44c0.86-0.55,1.8-0.82,2.82-0.82c0.92,0,1.62,0.26,2.11,0.79c0.48,0.53,0.72,1.28,0.72,2.25
		v5.84H157.65z M155.84,120.81c0.38,0,0.68-0.17,0.91-0.51s0.34-0.8,0.34-1.36v-0.73l-0.64,0.03c-0.47,0.03-0.82,0.16-1.04,0.41
		c-0.22,0.25-0.33,0.61-0.33,1.09C155.08,120.45,155.33,120.81,155.84,120.81z"/>
	<path d="M160.78,111.3c0-0.34,0.1-0.62,0.3-0.82c0.2-0.2,0.48-0.3,0.84-0.3c0.34,0,0.61,0.1,0.81,0.3s0.3,0.47,0.3,0.82
		c0,0.35-0.1,0.63-0.31,0.82c-0.21,0.2-0.48,0.29-0.8,0.29c-0.34,0-0.62-0.1-0.83-0.29C160.88,111.93,160.78,111.65,160.78,111.3z
		 M162.94,122.28h-2.08v-8.7h2.08V122.28z"/>
	<path d="M167.75,120.67c0.29,0,0.61-0.07,0.95-0.22v1.63c-0.34,0.23-0.85,0.35-1.52,0.35c-0.76,0-1.32-0.23-1.68-0.68
		c-0.36-0.45-0.55-1.13-0.55-2.03v-4.51h-0.84v-0.93l1.09-0.75l0.53-1.84h1.33v1.88h1.58v1.65h-1.58v4.58
		C167.05,120.38,167.28,120.67,167.75,120.67z"/>
	<path d="M172.39,120.6c-0.27,1.05-0.73,2.3-1.38,3.74h-1.59c0.34-1.39,0.6-2.69,0.79-3.92h2.06L172.39,120.6z"/>
	<path d="M184.25,122.28l-0.87-5.05l-0.3-2.13h-0.03c-0.08,0.69-0.14,1.19-0.19,1.5s-0.38,2.2-0.99,5.68h-2.67l-1.73-8.7h2.09
		l0.8,4.8c0.09,0.53,0.18,1.31,0.26,2.34h0.05c0.01-0.28,0.05-0.7,0.11-1.26s0.11-0.93,0.13-1.09l0.86-4.78h2.67l0.85,4.8
		c0.1,0.51,0.18,1.29,0.26,2.34h0.03c0.07-0.93,0.16-1.71,0.27-2.34l0.83-4.8h2.03l-1.74,8.7H184.25z"/>
	<path d="M194.08,122.28v-5.19c0-1.28-0.32-1.91-0.96-1.91c-0.48,0-0.82,0.25-1.01,0.75s-0.29,1.23-0.29,2.17v4.18h-2.08v-12.16
		h2.08v2.7c0,0.35-0.03,0.97-0.09,1.87h0.11c0.42-0.85,1.06-1.28,1.92-1.28c0.8,0,1.4,0.27,1.8,0.81s0.61,1.33,0.61,2.38v5.68
		H194.08z"/>
	<path d="M202.12,122.28l-0.41-1.19h-0.05c-0.31,0.51-0.63,0.86-0.95,1.05s-0.74,0.29-1.24,0.29c-0.64,0-1.14-0.24-1.51-0.72
		s-0.55-1.15-0.55-2c0-0.92,0.25-1.6,0.75-2.04s1.25-0.69,2.25-0.74l1.16-0.05v-0.63c0-0.81-0.35-1.22-1.05-1.22
		c-0.52,0-1.12,0.2-1.8,0.61l-0.72-1.44c0.86-0.55,1.8-0.82,2.82-0.82c0.92,0,1.62,0.26,2.11,0.79s0.72,1.28,0.72,2.25v5.84H202.12z
		 M200.31,120.81c0.38,0,0.68-0.17,0.91-0.51s0.34-0.8,0.34-1.36v-0.73l-0.64,0.03c-0.47,0.03-0.82,0.16-1.04,0.41
		s-0.33,0.61-0.33,1.09C199.54,120.45,199.8,120.81,200.31,120.81z"/>
	<path d="M208.34,120.67c0.29,0,0.61-0.07,0.95-0.22v1.63c-0.34,0.23-0.85,0.35-1.52,0.35c-0.75,0-1.32-0.23-1.68-0.68
		s-0.55-1.13-0.55-2.03v-4.51h-0.84v-0.93l1.09-0.75l0.53-1.84h1.33v1.88h1.58v1.65h-1.58v4.58
		C207.64,120.38,207.87,120.67,208.34,120.67z"/>
	<path d="M214.39,111.3c0-0.34,0.1-0.62,0.3-0.82s0.48-0.3,0.84-0.3c0.34,0,0.61,0.1,0.81,0.3s0.3,0.47,0.3,0.82
		c0,0.35-0.1,0.63-0.31,0.82s-0.48,0.29-0.8,0.29c-0.34,0-0.62-0.1-0.83-0.29S214.39,111.65,214.39,111.3z M216.55,122.28h-2.08
		v-8.7h2.08V122.28z"/>
	<path d="M223.01,119.73c0,0.85-0.25,1.51-0.75,1.99s-1.23,0.71-2.2,0.71c-0.86,0-1.57-0.17-2.13-0.51v-1.8
		c0.29,0.2,0.62,0.36,1,0.49s0.72,0.2,1.01,0.2c0.32,0,0.57-0.08,0.74-0.24s0.25-0.37,0.25-0.63c0-0.27-0.09-0.5-0.27-0.7
		s-0.5-0.44-0.98-0.73c-0.63-0.38-1.08-0.77-1.36-1.2s-0.41-0.93-0.41-1.5c0-0.74,0.25-1.33,0.76-1.76s1.2-0.65,2.09-0.65
		c0.77,0,1.5,0.2,2.18,0.61l-0.68,1.49c-0.56-0.3-1.05-0.45-1.47-0.45c-0.27,0-0.46,0.07-0.6,0.21s-0.2,0.31-0.2,0.52
		c0,0.23,0.08,0.44,0.25,0.63s0.47,0.41,0.92,0.68c0.54,0.33,0.92,0.61,1.14,0.84s0.39,0.49,0.51,0.78S223.01,119.34,223.01,119.73z
		"/>
	<path d="M234.33,122.28l-0.87-5.05l-0.3-2.13h-0.03c-0.08,0.69-0.14,1.19-0.19,1.5s-0.38,2.2-0.99,5.68h-2.67l-1.73-8.7h2.09
		l0.8,4.8c0.09,0.53,0.18,1.31,0.26,2.34h0.05c0.01-0.28,0.05-0.7,0.11-1.26s0.11-0.93,0.13-1.09l0.86-4.78h2.67l0.85,4.8
		c0.1,0.51,0.18,1.29,0.26,2.34h0.03c0.07-0.93,0.16-1.71,0.27-2.34l0.83-4.8h2.03l-1.74,8.7H234.33z"/>
	<path d="M244.16,122.28v-5.19c0-1.28-0.32-1.91-0.96-1.91c-0.48,0-0.82,0.25-1.01,0.75s-0.29,1.23-0.29,2.17v4.18h-2.08v-12.16
		h2.08v2.7c0,0.35-0.03,0.97-0.09,1.87h0.11c0.42-0.85,1.06-1.28,1.92-1.28c0.8,0,1.4,0.27,1.8,0.81s0.61,1.33,0.61,2.38v5.68
		H244.16z"/>
	<path d="M252.2,122.28l-0.41-1.19h-0.05c-0.31,0.51-0.63,0.86-0.95,1.05s-0.74,0.29-1.24,0.29c-0.64,0-1.14-0.24-1.51-0.72
		s-0.55-1.15-0.55-2c0-0.92,0.25-1.6,0.75-2.04s1.25-0.69,2.25-0.74l1.16-0.05v-0.63c0-0.81-0.35-1.22-1.05-1.22
		c-0.52,0-1.12,0.2-1.8,0.61l-0.72-1.44c0.86-0.55,1.8-0.82,2.82-0.82c0.92,0,1.62,0.26,2.11,0.79s0.72,1.28,0.72,2.25v5.84H252.2z
		 M250.4,120.81c0.38,0,0.68-0.17,0.91-0.51s0.34-0.8,0.34-1.36v-0.73l-0.64,0.03c-0.47,0.03-0.82,0.16-1.04,0.41
		s-0.33,0.61-0.33,1.09C249.63,120.45,249.89,120.81,250.4,120.81z"/>
	<path d="M258.43,120.67c0.29,0,0.61-0.07,0.95-0.22v1.63c-0.34,0.23-0.85,0.35-1.52,0.35c-0.75,0-1.32-0.23-1.68-0.68
		s-0.55-1.13-0.55-2.03v-4.51h-0.84v-0.93l1.09-0.75l0.53-1.84h1.33v1.88h1.58v1.65h-1.58v4.58
		C257.72,120.38,257.96,120.67,258.43,120.67z"/>
	<path d="M261.42,118.6v-0.55c0-0.5,0.08-0.94,0.23-1.31s0.43-0.77,0.84-1.2c0.39-0.42,0.63-0.75,0.74-0.99s0.16-0.54,0.16-0.91
		c0-0.34-0.08-0.61-0.23-0.83s-0.4-0.32-0.74-0.32c-0.56,0-1.15,0.2-1.77,0.6l-0.73-1.56c0.82-0.56,1.72-0.84,2.72-0.84
		c0.86,0,1.54,0.24,2.04,0.71s0.75,1.14,0.75,1.99c0,0.59-0.09,1.1-0.26,1.51s-0.53,0.91-1.07,1.5c-0.35,0.38-0.57,0.67-0.67,0.88
		s-0.14,0.49-0.14,0.84v0.48H261.42z M261.05,121.21c0-0.41,0.11-0.73,0.33-0.95s0.54-0.33,0.96-0.33c0.43,0,0.75,0.11,0.97,0.34
		s0.33,0.54,0.33,0.94c0,0.4-0.11,0.71-0.34,0.94s-0.54,0.34-0.96,0.34s-0.74-0.11-0.96-0.34S261.05,121.61,261.05,121.21z"/>
</g>
<g class="st1">
	<path d="M148.13,141.48h-2.13v-5.01h-2.8v5.01h-2.13v-11.42h2.13v4.54h2.8v-4.54h2.13V141.48z"/>
	<path d="M156.47,137.11c0,1.43-0.3,2.54-0.91,3.33c-0.6,0.79-1.43,1.19-2.48,1.19c-0.67,0-1.26-0.18-1.77-0.55
		c-0.51-0.36-0.9-0.89-1.18-1.57c-0.28-0.68-0.41-1.49-0.41-2.4c0-1.41,0.3-2.51,0.9-3.31c0.6-0.79,1.43-1.19,2.49-1.19
		c1.03,0,1.84,0.41,2.45,1.21C156.16,134.63,156.47,135.73,156.47,137.11z M151.84,137.11c0,0.91,0.1,1.59,0.3,2.05
		c0.2,0.46,0.52,0.7,0.95,0.7c0.83,0,1.25-0.92,1.25-2.75c0-0.91-0.1-1.59-0.3-2.04c-0.2-0.45-0.52-0.68-0.95-0.68
		c-0.44,0-0.76,0.23-0.95,0.68C151.94,135.52,151.84,136.2,151.84,137.11z"/>
	<path d="M163.99,141.48l-0.87-5.05l-0.3-2.13h-0.03c-0.08,0.69-0.14,1.19-0.19,1.5s-0.38,2.2-0.99,5.68h-2.67l-1.73-8.7h2.09
		l0.8,4.8c0.09,0.53,0.18,1.31,0.26,2.34h0.05c0.01-0.28,0.05-0.7,0.11-1.26s0.11-0.93,0.13-1.09l0.86-4.78h2.67l0.85,4.8
		c0.1,0.51,0.18,1.29,0.26,2.34h0.03c0.07-0.93,0.16-1.71,0.27-2.34l0.83-4.8h2.03l-1.74,8.7H163.99z"/>
	<path d="M176.31,141.63c-1.04,0-1.83-0.38-2.37-1.13c-0.54-0.75-0.81-1.86-0.81-3.33c0-1.53,0.26-2.67,0.77-3.43
		c0.51-0.75,1.31-1.13,2.38-1.13c0.32,0,0.66,0.05,1.02,0.14c0.35,0.09,0.67,0.23,0.95,0.41l-0.59,1.62
		c-0.43-0.25-0.82-0.38-1.15-0.38c-0.44,0-0.76,0.23-0.96,0.69s-0.29,1.15-0.29,2.07c0,0.9,0.1,1.57,0.29,2.02
		c0.19,0.45,0.51,0.67,0.95,0.67c0.52,0,1.06-0.18,1.63-0.55v1.83C177.58,141.46,176.97,141.63,176.31,141.63z"/>
	<path d="M183.64,141.48l-0.41-1.19h-0.05c-0.31,0.51-0.63,0.86-0.95,1.05s-0.74,0.29-1.24,0.29c-0.64,0-1.14-0.24-1.51-0.72
		s-0.55-1.15-0.55-2c0-0.92,0.25-1.6,0.75-2.04c0.5-0.45,1.25-0.69,2.25-0.74l1.16-0.05v-0.63c0-0.81-0.35-1.22-1.05-1.22
		c-0.52,0-1.12,0.2-1.8,0.61l-0.72-1.44c0.86-0.55,1.8-0.82,2.82-0.82c0.92,0,1.62,0.26,2.11,0.79c0.48,0.53,0.72,1.28,0.72,2.25
		v5.84H183.64z M181.83,140.01c0.38,0,0.68-0.17,0.91-0.51s0.34-0.8,0.34-1.36v-0.73l-0.64,0.03c-0.47,0.03-0.82,0.16-1.04,0.41
		c-0.22,0.25-0.33,0.61-0.33,1.09C181.07,139.65,181.32,140.01,181.83,140.01z"/>
	<path d="M191.18,141.48v-5.19c0-0.63-0.08-1.11-0.23-1.43c-0.15-0.32-0.4-0.48-0.73-0.48c-0.45,0-0.78,0.22-0.98,0.67
		c-0.21,0.45-0.31,1.2-0.31,2.25v4.18h-2.08v-8.7h1.65l0.25,1.12h0.13c0.19-0.4,0.46-0.71,0.8-0.94c0.35-0.23,0.76-0.34,1.23-0.34
		c0.79,0,1.38,0.27,1.78,0.81s0.59,1.33,0.59,2.38v5.68H191.18z"/>
	<path d="M199.41,141.48v-11.42h2v11.42H199.41z"/>
	<path d="M210.68,139.87c0.29,0,0.61-0.07,0.95-0.22v1.63c-0.34,0.23-0.85,0.35-1.52,0.35c-0.75,0-1.32-0.23-1.68-0.68
		s-0.55-1.13-0.55-2.03v-4.51h-0.84v-0.93l1.09-0.75l0.53-1.84h1.33v1.88h1.58v1.65h-1.58V139
		C209.97,139.58,210.21,139.87,210.68,139.87z"/>
	<path d="M216.05,141.63c-1.09,0-1.95-0.39-2.57-1.16s-0.94-1.87-0.94-3.29c0-1.44,0.28-2.56,0.85-3.37s1.36-1.21,2.38-1.21
		c0.95,0,1.7,0.34,2.24,1.04s0.82,1.66,0.82,2.9v1.11h-4.18c0.02,0.78,0.17,1.35,0.48,1.73s0.72,0.57,1.25,0.57
		c0.68,0,1.37-0.21,2.08-0.63v1.71C217.78,141.43,216.99,141.63,216.05,141.63z M215.75,134.21c-0.3,0-0.54,0.16-0.73,0.47
		s-0.3,0.8-0.34,1.46h2.11c-0.01-0.64-0.11-1.12-0.29-1.45S216.07,134.21,215.75,134.21z"/>
	<path d="M222.28,141.48h-2.08v-12.16h2.08V141.48z"/>
	<path d="M226.1,141.48h-2.08v-12.16h2.08V141.48z"/>
	<path d="M237.86,141.48l-0.87-5.05l-0.3-2.13h-0.03c-0.08,0.69-0.14,1.19-0.19,1.5s-0.38,2.2-0.99,5.68h-2.67l-1.73-8.7h2.09
		l0.8,4.8c0.09,0.53,0.18,1.31,0.26,2.34h0.05c0.01-0.28,0.05-0.7,0.11-1.26s0.11-0.93,0.13-1.09l0.86-4.78h2.67l0.85,4.8
		c0.1,0.51,0.18,1.29,0.26,2.34h0.03c0.07-0.93,0.16-1.71,0.27-2.34l0.83-4.8h2.03l-1.74,8.7H237.86z"/>
	<path d="M247.69,141.48v-5.19c0-1.28-0.32-1.91-0.96-1.91c-0.48,0-0.82,0.25-1.01,0.75s-0.29,1.23-0.29,2.17v4.18h-2.08v-12.16
		h2.08v2.7c0,0.35-0.03,0.97-0.09,1.87h0.11c0.42-0.85,1.06-1.28,1.92-1.28c0.8,0,1.4,0.27,1.8,0.81s0.61,1.33,0.61,2.38v5.68
		H247.69z"/>
	<path d="M255.72,141.48l-0.41-1.19h-0.05c-0.31,0.51-0.63,0.86-0.95,1.05s-0.74,0.29-1.24,0.29c-0.64,0-1.14-0.24-1.51-0.72
		s-0.55-1.15-0.55-2c0-0.92,0.25-1.6,0.75-2.04s1.25-0.69,2.25-0.74l1.16-0.05v-0.63c0-0.81-0.35-1.22-1.05-1.22
		c-0.52,0-1.12,0.2-1.8,0.61l-0.72-1.44c0.86-0.55,1.8-0.82,2.82-0.82c0.92,0,1.62,0.26,2.11,0.79s0.72,1.28,0.72,2.25v5.84H255.72z
		 M253.92,140.01c0.38,0,0.68-0.17,0.91-0.51s0.34-0.8,0.34-1.36v-0.73l-0.64,0.03c-0.47,0.03-0.82,0.16-1.04,0.41
		s-0.33,0.61-0.33,1.09C253.15,139.65,253.41,140.01,253.92,140.01z"/>
	<path d="M261.95,139.87c0.29,0,0.61-0.07,0.95-0.22v1.63c-0.34,0.23-0.85,0.35-1.52,0.35c-0.75,0-1.32-0.23-1.68-0.68
		s-0.55-1.13-0.55-2.03v-4.51h-0.84v-0.93l1.09-0.75l0.53-1.84h1.33v1.88h1.58v1.65h-1.58V139
		C261.25,139.58,261.48,139.87,261.95,139.87z"/>
</g>
<g class="st1">
	<path d="M140.88,149.7c0-0.34,0.1-0.62,0.3-0.82c0.2-0.2,0.48-0.3,0.84-0.3c0.34,0,0.61,0.1,0.81,0.3s0.3,0.47,0.3,0.82
		c0,0.35-0.1,0.63-0.31,0.82c-0.21,0.2-0.48,0.29-0.8,0.29c-0.34,0-0.62-0.1-0.83-0.29C140.99,150.33,140.88,150.05,140.88,149.7z
		 M143.05,160.68h-2.08v-8.7h2.08V160.68z"/>
	<path d="M149.5,158.13c0,0.85-0.25,1.51-0.75,1.99c-0.5,0.48-1.23,0.71-2.2,0.71c-0.86,0-1.57-0.17-2.13-0.51v-1.8
		c0.29,0.2,0.62,0.36,1,0.49s0.72,0.2,1.01,0.2c0.32,0,0.57-0.08,0.74-0.24c0.17-0.16,0.25-0.37,0.25-0.63c0-0.27-0.09-0.5-0.27-0.7
		c-0.18-0.2-0.5-0.44-0.98-0.73c-0.63-0.38-1.08-0.77-1.36-1.2s-0.41-0.93-0.41-1.5c0-0.74,0.25-1.33,0.76-1.76s1.2-0.65,2.09-0.65
		c0.77,0,1.5,0.2,2.18,0.61l-0.68,1.49c-0.56-0.3-1.05-0.45-1.47-0.45c-0.27,0-0.46,0.07-0.6,0.21s-0.2,0.31-0.2,0.52
		c0,0.23,0.08,0.44,0.25,0.63s0.47,0.41,0.92,0.68c0.54,0.33,0.92,0.61,1.14,0.84s0.39,0.49,0.51,0.78
		C149.44,157.4,149.5,157.74,149.5,158.13z"/>
	<path d="M154.69,149.7c0-0.34,0.1-0.62,0.3-0.82c0.2-0.2,0.48-0.3,0.84-0.3c0.34,0,0.61,0.1,0.81,0.3s0.3,0.47,0.3,0.82
		c0,0.35-0.1,0.63-0.31,0.82c-0.21,0.2-0.48,0.29-0.8,0.29c-0.34,0-0.62-0.1-0.83-0.29C154.8,150.33,154.69,150.05,154.69,149.7z
		 M156.86,160.68h-2.08v-8.7h2.08V160.68z"/>
	<path d="M167.28,160.68v-5.19c0-1.28-0.32-1.91-0.95-1.91c-0.46,0-0.79,0.23-0.98,0.68c-0.2,0.46-0.3,1.19-0.3,2.19v4.23h-2.09
		v-5.19c0-1.28-0.32-1.91-0.96-1.91c-0.45,0-0.77,0.23-0.98,0.68s-0.3,1.2-0.3,2.24v4.18h-2.08v-8.7h1.65l0.25,1.12h0.13
		c0.21-0.44,0.49-0.77,0.86-0.97c0.36-0.21,0.75-0.31,1.16-0.31c1.06,0,1.77,0.5,2.13,1.51h0.08c0.44-1,1.15-1.51,2.13-1.51
		c0.77,0,1.36,0.27,1.75,0.81s0.6,1.33,0.6,2.38v5.68H167.28z"/>
	<path d="M174.94,160.83c-0.38,0-0.71-0.08-1-0.25s-0.56-0.47-0.81-0.89h-0.11c0.08,0.71,0.13,1.14,0.13,1.28v3.55h-2.09v-12.55
		h1.61l0.36,1.13h0.09c0.43-0.86,1.06-1.3,1.88-1.3c0.79,0,1.41,0.39,1.86,1.18c0.45,0.78,0.67,1.89,0.67,3.32
		c0,1.41-0.23,2.52-0.7,3.32C176.37,160.43,175.74,160.83,174.94,160.83z M174.3,153.57c-0.41,0-0.7,0.19-0.88,0.57
		s-0.27,1-0.29,1.88v0.27c0,0.96,0.09,1.66,0.27,2.09c0.18,0.44,0.48,0.66,0.91,0.66c0.73,0,1.09-0.92,1.09-2.77
		c0-0.91-0.09-1.58-0.27-2.03S174.68,153.57,174.3,153.57z"/>
	<path d="M185.44,156.31c0,1.43-0.3,2.54-0.91,3.33c-0.6,0.79-1.43,1.19-2.48,1.19c-0.67,0-1.26-0.18-1.77-0.55
		c-0.51-0.36-0.9-0.89-1.18-1.57c-0.28-0.68-0.41-1.49-0.41-2.4c0-1.41,0.3-2.51,0.9-3.31c0.6-0.79,1.43-1.19,2.49-1.19
		c1.03,0,1.84,0.41,2.45,1.21C185.13,153.83,185.44,154.93,185.44,156.31z M180.81,156.31c0,0.91,0.1,1.59,0.3,2.05
		c0.2,0.46,0.52,0.7,0.95,0.7c0.83,0,1.25-0.92,1.25-2.75c0-0.91-0.1-1.59-0.3-2.04c-0.2-0.45-0.52-0.68-0.95-0.68
		c-0.44,0-0.76,0.23-0.95,0.68C180.91,154.72,180.81,155.4,180.81,156.31z"/>
	<path d="M190.61,151.81c0.25,0,0.5,0.04,0.75,0.12l-0.24,2.02c-0.15-0.05-0.34-0.08-0.57-0.08c-0.51,0-0.89,0.2-1.16,0.6
		c-0.27,0.4-0.41,0.98-0.41,1.74v4.48h-2.08v-8.7h1.71l0.23,1.36h0.07c0.23-0.55,0.48-0.94,0.75-1.17
		C189.93,151.93,190.25,151.81,190.61,151.81z"/>
	<path d="M195.31,159.07c0.29,0,0.61-0.07,0.95-0.22v1.63c-0.34,0.23-0.85,0.35-1.52,0.35c-0.75,0-1.32-0.23-1.68-0.68
		s-0.55-1.13-0.55-2.03v-4.51h-0.84v-0.93l1.09-0.75l0.53-1.84h1.33v1.88h1.58v1.65h-1.58v4.58
		C194.61,158.78,194.84,159.07,195.31,159.07z"/>
	<path d="M201.74,160.68l-0.41-1.19h-0.05c-0.31,0.51-0.63,0.86-0.95,1.05s-0.74,0.29-1.24,0.29c-0.64,0-1.14-0.24-1.51-0.72
		s-0.55-1.15-0.55-2c0-0.92,0.25-1.6,0.75-2.04s1.25-0.69,2.25-0.74l1.16-0.05v-0.63c0-0.81-0.35-1.22-1.05-1.22
		c-0.52,0-1.12,0.2-1.8,0.61l-0.72-1.44c0.86-0.55,1.8-0.82,2.82-0.82c0.92,0,1.62,0.26,2.11,0.79s0.72,1.28,0.72,2.25v5.84H201.74z
		 M199.94,159.21c0.38,0,0.68-0.17,0.91-0.51s0.34-0.8,0.34-1.36v-0.73l-0.64,0.03c-0.47,0.03-0.82,0.16-1.04,0.41
		s-0.33,0.61-0.33,1.09C199.17,158.85,199.42,159.21,199.94,159.21z"/>
	<path d="M209.28,160.68v-5.19c0-0.63-0.08-1.11-0.23-1.43s-0.4-0.48-0.73-0.48c-0.45,0-0.78,0.22-0.98,0.67s-0.31,1.2-0.31,2.25
		v4.18h-2.08v-8.7h1.65l0.25,1.12h0.13c0.19-0.4,0.46-0.71,0.8-0.94s0.76-0.34,1.23-0.34c0.79,0,1.38,0.27,1.78,0.81
		s0.59,1.33,0.59,2.38v5.68H209.28z"/>
	<path d="M216.08,159.07c0.29,0,0.61-0.07,0.95-0.22v1.63c-0.34,0.23-0.85,0.35-1.52,0.35c-0.75,0-1.32-0.23-1.68-0.68
		s-0.55-1.13-0.55-2.03v-4.51h-0.84v-0.93l1.09-0.75l0.53-1.84h1.33v1.88h1.58v1.65h-1.58v4.58
		C215.37,158.78,215.61,159.07,216.08,159.07z"/>
	<path d="M219.07,157v-0.55c0-0.5,0.08-0.94,0.23-1.31s0.43-0.77,0.84-1.2c0.39-0.42,0.63-0.75,0.74-0.99s0.16-0.54,0.16-0.91
		c0-0.34-0.08-0.61-0.23-0.83s-0.4-0.32-0.74-0.32c-0.56,0-1.15,0.2-1.77,0.6l-0.73-1.56c0.82-0.56,1.72-0.84,2.72-0.84
		c0.86,0,1.54,0.24,2.04,0.71s0.75,1.14,0.75,1.99c0,0.59-0.09,1.1-0.26,1.51s-0.53,0.91-1.07,1.5c-0.35,0.38-0.57,0.67-0.67,0.88
		s-0.14,0.49-0.14,0.84V157H219.07z M218.7,159.61c0-0.41,0.11-0.73,0.33-0.95s0.54-0.33,0.96-0.33c0.43,0,0.75,0.11,0.97,0.34
		s0.33,0.54,0.33,0.94c0,0.4-0.11,0.71-0.34,0.94s-0.54,0.34-0.96,0.34s-0.74-0.11-0.96-0.34S218.7,160.01,218.7,159.61z"/>
</g>
</svg>
