<?xml version="1.0" encoding="utf-8"?>
<!-- Generator: Adobe Illustrator 23.0.2, SVG Export Plug-In . SVG Version: 6.00 Build 0)  -->
<svg version="1.1" id="Layer_1" xmlns="http://www.w3.org/2000/svg" xmlns:xlink="http://www.w3.org/1999/xlink" x="0px" y="0px"
	 viewBox="0 0 256 256" style="enable-background:new 0 0 256 256;" xml:space="preserve">
<style type="text/css">
	.st0{fill:#717687;}
</style>
<g>
	<path class="st0" d="M109.98,25.73v119.88l-94.53-1.13c-1.6-7-2.45-14.28-2.45-21.77C13,69.15,56.42,25.73,109.98,25.73z"/>
</g>
<g>
	<path class="st0" d="M145.27,25.73h-22.74v119.89h116.99c0.19-0.77,0.36-1.55,0.53-2.32c1.44-6.64,2.2-13.53,2.2-20.59
		C242.25,69.15,198.83,25.73,145.27,25.73z M193.86,94.46c-4.86,0-8.79-3.94-8.79-8.79c0-4.85,3.92-8.79,8.79-8.79
		c4.85,0,8.79,3.94,8.79,8.79C202.64,90.52,198.71,94.46,193.86,94.46z"/>
</g>
<g>
	<path class="st0" d="M239.52,158.18c-8.49,35.1-36.09,62.74-71.17,71.29v-71.29H239.52z"/>
</g>
<g>
	<path class="st0" d="M155.63,186.06v43.45c-0.69,0.17-1.38,0.33-2.07,0.49c-3.45-0.97-6.76-2.23-9.92-3.77
		c-15.99-7.78-28.01-22.46-32.17-40.17H155.63z"/>
</g>
</svg>
