<?xml version="1.0" encoding="utf-8"?>
<!-- Generator: Adobe Illustrator 23.0.2, SVG Export Plug-In . SVG Version: 6.00 Build 0)  -->
<svg version="1.1" id="Layer_1" xmlns="http://www.w3.org/2000/svg" xmlns:xlink="http://www.w3.org/1999/xlink" x="0px" y="0px"
	 viewBox="0 0 256 256" style="enable-background:new 0 0 256 256;" xml:space="preserve">
<style type="text/css">
	.st0{fill:#239CED;}
</style>
<g>
	<path class="st0" d="M226.8,115.3c0-55.2-44.8-100-100-100s-100,44.8-100,100c0,4.8,0.3,9.5,1,14.2c2.3,16.3,8.5,31.4,17.8,44.1
		c-3,4-4.8,8.9-4.8,14.3c0,3.8,0.9,7.5,2.6,10.7c1.3,2,2.6,3.9,4.1,5.7c4.3,4.5,10.3,7.2,17,7.2c6.6,0,12.6-2.7,16.9-7.1
		c0,0,0,0,0,0c0,0,0,0,0,0c0,0,0,0,0,0c-1.9,3.4-3,7.3-3,11.5c0,9.5,5.6,17.7,13.7,21.4c1.5,0.5,3,1.1,4.5,1.5
		c1.8,0.4,3.6,0.6,5.4,0.6c12.3,0,22.5-9.5,23.5-21.5c0-0.3,0-0.7,0-1.1c0-0.5,0-1.1,0.1-1.6c0-0.1,0-0.3,0-0.4c0,0.1,0,0.3,0,0.4
		c0,0.2,0,0.4,0,0.6c0,0.7,0,1.4-0.1,2.1c0.5,12.5,10.9,22.5,23.6,22.5c1.4,0,2.7-0.1,4-0.4c1.8-0.5,3.7-1,5.5-1.6
		c8.3-3.6,14.1-11.9,14.1-21.6c0-4.1-1-7.9-2.8-11.2c-0.2-0.3-0.3-0.5-0.5-0.8c-0.7-0.9-1.4-1.8-2-2.8c0.7,0.9,1.4,1.8,2,2.8
		c0.2,0.3,0.4,0.5,0.6,0.7c4.3,4.9,10.7,8.1,17.8,8.1c6.8,0,13-2.9,17.3-7.5c1-1.2,1.9-2.4,2.8-3.6c2.3-3.6,3.5-7.9,3.5-12.5
		c0-5.3-1.8-10.3-4.8-14.2c10.1-13.3,17-29.1,19.4-46.4C226.5,124.8,226.8,120.1,226.8,115.3z M163.5,94c0-5,4-9,9-9c5,0,9,4,9,9
		s-4,9-9,9C167.6,103,163.5,98.9,163.5,94z M64.2,94c0-5,4-9,9-9c5,0,9,4,9,9s-4,9-9,9C68.3,103,64.2,98.9,64.2,94z"/>
</g>
</svg>
